<svg width="64" height="64" viewBox="0 0 64 64" fill="none" xmlns="http://www.w3.org/2000/svg">
  <!-- Background Circle -->
  <circle cx="32" cy="32" r="30" fill="#0078d7"/>
  
  <!-- S -->
  <path d="M20.5 36.5C20.5 34.5 21.5 33.5 23.5 32.5C25.5 31.5 26.5 31 26.5 30C26.5 29 25.5 28.5 24.5 28.5C23.5 28.5 22.5 29 22 30L19 28C20 26 22 25 24.5 25C27.5 25 30 26.5 30 29.5C30 31.5 28.5 33 26.5 34C24.5 35 23.5 35.5 23.5 36.5H30V40H20.5V36.5Z" fill="white"/>
  
  <!-- T -->
  <path d="M33 25H43V28.5H40V40H36V28.5H33V25Z" fill="white"/>
  
  <!-- O -->
  <path d="M43 32.5C43 28.5 45.5 25 49.5 25C53.5 25 56 28.5 56 32.5C56 36.5 53.5 40 49.5 40C45.5 40 43 36.5 43 32.5ZM52.5 32.5C52.5 30.5 51.5 28.5 49.5 28.5C47.5 28.5 46.5 30.5 46.5 32.5C46.5 34.5 47.5 36.5 49.5 36.5C51.5 36.5 52.5 34.5 52.5 32.5Z" fill="white"/>
  
  <!-- Box Icon (Small) -->
  <rect x="14" y="42" width="36" height="6" rx="1" fill="white" opacity="0.8"/>
  <rect x="20" y="44" width="24" height="2" rx="0.5" fill="#0078d7"/>
</svg> 